<svg xmlns="http://www.w3.org/2000/svg" width="304.9200042724609" height="304.9200042724609" viewBox="-10 -10 350 312.5" class="looka-1j8o68f">
  <defs></defs>
  <g transform="matrix(1.5585413392436143,0,0,1.5585413392436143,0,0)">
    <circle cx="100.254" cy="100.254" r="100" fill="lightgray" />
    <circle cx="100.254" cy="100.254" r="100.254" fill="none" stroke="#000000" stroke-width="1.5" />
    <circle cx="100.254" cy="100.254" r="90.254" fill="none" stroke="#000000" stroke-width="1.5" />
  </g>
<g id="SvgjsG13879" featurekey="v37d4h-0" transform="matrix(0.8428412893893458,0,0,0.8428412893893458,113.73662373860537,68.78629070093524)" fill="#000000"><g xmlns="http://www.w3.org/2000/svg"><path fill="#000000" d="M39.444,93.602c-0.086,0-0.176-0.011-0.264-0.033C15.13,87.604,0.419,63.184,6.386,39.135   c2.889-11.65,10.143-21.477,20.424-27.671s22.359-8.015,34.01-5.125c24.049,5.966,38.76,30.385,32.795,54.435   c-3.92,15.8-16.123,28.274-31.848,32.555c-0.584,0.159-1.186-0.185-1.344-0.769c-0.158-0.584,0.186-1.187,0.77-1.346   c14.957-4.072,26.564-15.938,30.295-30.97c5.676-22.875-8.32-46.104-31.195-51.778c-11.08-2.75-22.57-1.019-32.352,4.874   c-9.779,5.892-16.678,15.24-19.428,26.322c-5.676,22.875,8.32,46.104,31.195,51.779c0.588,0.146,0.945,0.74,0.799,1.327   C40.382,93.268,39.937,93.602,39.444,93.602z M48.245,93.246c0,0.969,0.785,1.754,1.754,1.754s1.754-0.785,1.754-1.754   c0-0.968-0.785-1.754-1.754-1.754S48.245,92.278,48.245,93.246z M37.999,58.184c-0.195,1.066-0.404,2.133-0.631,3.199   c-0.225,1.067-0.436,2.139-0.629,3.216c-0.193,1.076-0.293,2.188-0.293,3.337c0,1.252,0.197,2.409,0.586,3.476   c0.389,1.066,0.953,1.994,1.691,2.786c0.738,0.79,1.648,1.405,2.725,1.846c1.076,0.44,2.291,0.661,3.645,0.661h1.693v-1.292   c0-0.224-0.088-0.4-0.262-0.522c-0.176-0.123-0.346-0.186-0.51-0.186h-1.014c-0.883,0-1.688-0.153-2.416-0.461   s-1.352-0.749-1.875-1.323c-0.523-0.576-0.936-1.271-1.232-2.093c-0.299-0.821-0.447-1.732-0.447-2.739   c0-1.146,0.092-2.277,0.277-3.383c0.184-1.109,0.389-2.206,0.615-3.292c0.225-1.086,0.43-2.169,0.615-3.246   c0.186-1.079,0.277-2.16,0.277-3.247c0-0.758-0.129-1.45-0.385-2.076c-0.256-0.626-0.596-1.179-1.016-1.662   c-0.42-0.482-0.902-0.883-1.445-1.2c-0.543-0.318-1.111-0.539-1.709-0.661c0.598-0.146,1.166-0.375,1.709-0.693   c0.541-0.319,1.025-0.712,1.445-1.185c0.42-0.471,0.76-1.024,1.016-1.661c0.256-0.636,0.385-1.335,0.385-2.093   c0-1.087-0.092-2.168-0.277-3.245s-0.391-2.156-0.615-3.233c-0.227-1.076-0.432-2.169-0.615-3.276   c-0.186-1.108-0.277-2.245-0.277-3.416c0-1.006,0.148-1.918,0.447-2.739c0.297-0.818,0.709-1.517,1.232-2.091   c0.523-0.575,1.146-1.017,1.875-1.324c0.729-0.308,1.533-0.461,2.416-0.461h1.014c0.164,0,0.334-0.063,0.51-0.185   c0.174-0.123,0.262-0.298,0.262-0.523v-1.293h-1.693c-1.354,0-2.568,0.221-3.645,0.661c-1.076,0.443-1.986,1.057-2.725,1.849   c-0.738,0.788-1.303,1.718-1.691,2.784s-0.586,2.226-0.586,3.476c0,1.149,0.1,2.261,0.293,3.337   c0.193,1.08,0.404,2.151,0.629,3.218c0.227,1.066,0.436,2.133,0.631,3.198c0.197,1.068,0.293,2.166,0.293,3.292   c0,0.679-0.113,1.3-0.338,1.863c-0.227,0.563-0.549,1.057-0.969,1.477s-0.928,0.745-1.521,0.969   c-0.598,0.227-1.252,0.338-1.971,0.338v1.875c0.719,0,1.373,0.113,1.971,0.341c0.594,0.226,1.102,0.548,1.521,0.969   c0.42,0.42,0.742,0.911,0.969,1.475c0.225,0.566,0.338,1.187,0.338,1.863C38.292,56.017,38.196,57.115,37.999,58.184z    M62.075,53.026c0.225-0.563,0.549-1.053,0.971-1.474c0.418-0.421,0.922-0.745,1.508-0.969c0.584-0.228,1.234-0.341,1.951-0.341   v-1.875c-0.717,0-1.367-0.112-1.951-0.338c-0.586-0.226-1.09-0.549-1.508-0.969c-0.422-0.42-0.746-0.914-0.971-1.477   s-0.338-1.185-0.338-1.864c0-1.126,0.098-2.223,0.291-3.292c0.195-1.064,0.404-2.131,0.631-3.198   c0.225-1.066,0.436-2.138,0.629-3.217c0.195-1.077,0.295-2.188,0.295-3.338c0-1.25-0.195-2.409-0.586-3.476   c-0.387-1.066-0.951-1.995-1.691-2.784c-0.738-0.791-1.646-1.404-2.723-1.848c-1.078-0.44-2.291-0.661-3.646-0.661h-1.693v1.292   c0,0.225,0.084,0.4,0.248,0.523s0.338,0.185,0.521,0.185h1.016c0.883,0,1.688,0.153,2.416,0.461   c0.727,0.308,1.352,0.749,1.875,1.325c0.525,0.573,0.936,1.272,1.232,2.091c0.297,0.821,0.447,1.732,0.447,2.739   c0,1.17-0.092,2.306-0.279,3.416c-0.184,1.107-0.387,2.199-0.615,3.276c-0.225,1.077-0.43,2.156-0.613,3.233   c-0.184,1.076-0.279,2.158-0.279,3.245c0,0.758,0.125,1.457,0.373,2.093c0.244,0.636,0.578,1.189,0.998,1.66   c0.42,0.473,0.902,0.866,1.445,1.185c0.543,0.317,1.115,0.547,1.709,0.693c-0.594,0.122-1.166,0.342-1.709,0.661   c-0.543,0.317-1.025,0.718-1.445,1.199c-0.42,0.483-0.752,1.037-0.998,1.662c-0.25,0.626-0.373,1.319-0.373,2.077   c0,1.087,0.096,2.168,0.279,3.248c0.184,1.076,0.389,2.158,0.613,3.245c0.229,1.086,0.432,2.184,0.615,3.293   c0.188,1.106,0.279,2.236,0.279,3.382c0,1.007-0.15,1.918-0.447,2.739c-0.297,0.822-0.709,1.517-1.232,2.094   c-0.523,0.574-1.148,1.014-1.875,1.323c-0.729,0.307-1.533,0.461-2.416,0.461h-1.016c-0.184,0-0.359,0.063-0.521,0.185   c-0.164,0.122-0.248,0.297-0.248,0.523v1.292h1.693c1.354,0,2.568-0.221,3.646-0.661c1.076-0.441,1.984-1.058,2.723-1.847   c0.738-0.79,1.303-1.719,1.691-2.786c0.391-1.066,0.586-2.224,0.586-3.475c0-1.15-0.1-2.262-0.295-3.338   c-0.193-1.077-0.404-2.148-0.629-3.215c-0.225-1.066-0.436-2.134-0.631-3.2c-0.193-1.067-0.291-2.166-0.291-3.292   C61.737,54.213,61.851,53.593,62.075,53.026z"></path></g></g>
<g id="SvgjsG13880" featurekey="UxBHKT-0" transform="matrix(1.9388139663520836,0,0,1.9388139663520836,76.5265027908102,152.01598921099645)" fill="#000000"><path d="M0.76 18.54 l1.56 -2.08 q0.72 0.5 1.68 0.84 t1.88 0.34 q0.68 0 1.13 -0.28 t0.45 -0.7 t-0.51 -0.59 t-0.99 -0.24 t-0.62 -0.09 q-1.2 -0.2 -2.07 -0.48 t-1.58 -1 t-0.71 -1.98 q0 -2.08 1.51 -2.78 t3.03 -0.7 q1.3 0 2.4 0.38 t2.18 1.2 l-1.56 2.04 q-0.78 -0.46 -1.54 -0.74 t-1.58 -0.28 q-0.5 0 -0.97 0.22 t-0.47 0.6 q0 0.48 0.65 0.68 t1.43 0.3 q1.4 0.24 2.24 0.5 t1.49 0.97 t0.65 2.01 q0 1.72 -1.18 2.65 t-3.34 0.93 q-3 0 -5.16 -1.72 z M25.83 18.9 q-0.38 0.52 -1.31 0.93 t-2.03 0.41 q-1.7 0 -2.95 -0.76 t-1.91 -2.07 t-0.66 -2.91 t0.66 -2.91 t1.91 -2.07 t2.95 -0.76 q1.14 0 2.01 0.39 t1.33 0.99 l0 -1.14 l2.96 0 l0 11 l-2.96 0 l0 -1.1 z M25.13 12.25 q-0.82 -0.87 -2.2 -0.87 q-1.4 0 -2.21 0.87 t-0.81 2.25 q0 1.34 0.83 2.22 t2.19 0.88 q1.4 0 2.21 -0.83 t0.81 -2.27 q0 -1.38 -0.82 -2.25 z M46.25 22.77 q-1.47 1.37 -4.09 1.37 q-3.14 0 -5.26 -1.66 l1.46 -2.12 q0.68 0.54 1.61 0.88 t1.97 0.34 q2.82 0 2.82 -2.56 l0 -0.18 q-1.2 0.98 -3.08 0.98 q-1.74 0 -3.06 -0.73 t-2.02 -1.99 t-0.7 -2.78 q0 -1.54 0.7 -2.79 t2.01 -1.99 t3.07 -0.74 q1.88 0 3.08 0.98 l0 -0.78 l2.96 0 l0 10.02 q0 2.38 -1.47 3.75 z M43.39 16.91 q0.69 -0.39 1.09 -1.08 t0.4 -1.51 q0 -0.84 -0.4 -1.52 t-1.09 -1.07 t-1.53 -0.39 q-1.36 0 -2.19 0.85 t-0.83 2.13 q0 1.32 0.81 2.15 t2.21 0.83 q0.84 0 1.53 -0.39 z M63.69 18.9 q-0.38 0.52 -1.31 0.93 t-2.03 0.41 q-1.7 0 -2.95 -0.76 t-1.91 -2.07 t-0.66 -2.91 t0.66 -2.91 t1.91 -2.07 t2.95 -0.76 q1.14 0 2.01 0.39 t1.33 0.99 l0 -1.14 l2.96 0 l0 11 l-2.96 0 l0 -1.1 z M62.989999999999995 12.25 q-0.82 -0.87 -2.2 -0.87 q-1.4 0 -2.21 0.87 t-0.81 2.25 q0 1.34 0.83 2.22 t2.19 0.88 q1.4 0 2.21 -0.83 t0.81 -2.27 q0 -1.38 -0.82 -2.25 z M79.52000000000001 11.87 q-0.86 0.21 -1.58 0.99 t-0.72 2.28 l0 4.86 l-2.98 0 l0 -11 l2.98 0 l0 1.46 q0.74 -0.98 1.81 -1.33 t1.95 -0.33 l0 2.92 q-0.6 -0.06 -1.46 0.15 z"></path></g>
<g id="SvgjsG13881" featurekey="UxBHKT-1" transform="matrix(1.93629584884566,0,0,1.93629584884566,54.52841655828997,199.5896028393845)" fill="#000000"><path d="M0.76 18.54 l1.56 -2.08 q0.72 0.5 1.68 0.84 t1.88 0.34 q0.68 0 1.13 -0.28 t0.45 -0.7 t-0.51 -0.59 t-0.99 -0.24 t-0.62 -0.09 q-1.2 -0.2 -2.07 -0.48 t-1.58 -1 t-0.71 -1.98 q0 -2.08 1.51 -2.78 t3.03 -0.7 q1.3 0 2.4 0.38 t2.18 1.2 l-1.56 2.04 q-0.78 -0.46 -1.54 -0.74 t-1.58 -0.28 q-0.5 0 -0.97 0.22 t-0.47 0.6 q0 0.48 0.65 0.68 t1.43 0.3 q1.4 0.24 2.24 0.5 t1.49 0.97 t0.65 2.01 q0 1.72 -1.18 2.65 t-3.34 0.93 q-3 0 -5.16 -1.72 z M26.740000000000002 10.02 q1.03 1.22 1.03 3.48 l0 6.5 l-3.04 0 l0 -6.5 q0 -1.18 -0.59 -1.7 t-1.55 -0.52 q-0.82 0 -1.48 0.65 t-0.62 2.25 l0 5.82 l-2.98 0 l0 -15.14 l2.98 0 l0 5.12 q0.54 -0.54 1.36 -0.86 t1.58 -0.32 q2.28 0 3.31 1.22 z M43.7 18.9 q-0.38 0.52 -1.31 0.93 t-2.03 0.41 q-1.7 0 -2.95 -0.76 t-1.91 -2.07 t-0.66 -2.91 t0.66 -2.91 t1.91 -2.07 t2.95 -0.76 q1.14 0 2.01 0.39 t1.33 0.99 l0 -1.14 l2.96 0 l0 11 l-2.96 0 l0 -1.1 z M43 12.25 q-0.82 -0.87 -2.2 -0.87 q-1.4 0 -2.21 0.87 t-0.81 2.25 q0 1.34 0.83 2.22 t2.19 0.88 q1.4 0 2.21 -0.83 t0.81 -2.27 q0 -1.38 -0.82 -2.25 z M59.53 11.87 q-0.86 0.21 -1.58 0.99 t-0.72 2.28 l0 4.86 l-2.98 0 l0 -11 l2.98 0 l0 1.46 q0.74 -0.98 1.81 -1.33 t1.95 -0.33 l0 2.92 q-0.6 -0.06 -1.46 0.15 z M83.85 10.04 q1.13 1.24 1.13 3.46 l0 6.5 l-3.02 0 l0 -6.5 q0 -1.18 -0.59 -1.7 t-1.55 -0.52 q-0.8 0 -1.44 0.6 t-0.66 2 l0 6.12 l-3.02 0 l0 -6.5 q0 -1.18 -0.59 -1.7 t-1.53 -0.52 q-0.86 0 -1.49 0.64 t-0.63 2.26 l-0.02 5.82 l-2.98 0 l0 -11 l2.98 0 l0 1 q0.58 -0.52 1.4 -0.86 t1.5 -0.34 q2.32 0 3.54 1.5 q0.62 -0.7 1.54 -1.1 t2 -0.4 q2.3 0 3.43 1.24 z M101.09 18.9 q-0.38 0.52 -1.31 0.93 t-2.03 0.41 q-1.7 0 -2.95 -0.76 t-1.91 -2.07 t-0.66 -2.91 t0.66 -2.91 t1.91 -2.07 t2.95 -0.76 q1.14 0 2.01 0.39 t1.33 0.99 l0 -1.14 l2.96 0 l0 11 l-2.96 0 l0 -1.1 z M100.39 12.25 q-0.82 -0.87 -2.2 -0.87 q-1.4 0 -2.21 0.87 t-0.81 2.25 q0 1.34 0.83 2.22 t2.19 0.88 q1.4 0 2.21 -0.83 t0.81 -2.27 q0 -1.38 -0.82 -2.25 z"></path></g>
</svg>


