<svg xmlns="http://www.w3.org/2000/svg" width="304.92" height="304.92" viewBox="-10 -10 350 312.5"><g transform="scale(1.55854)"><circle cx="100.254" cy="100.254" r="100" fill="#d3d3d3"/><g fill="none" stroke="#000" stroke-width="1.5"><circle cx="100.254" cy="100.254" r="100.254"/><circle cx="100.254" cy="100.254" r="90.254"/></g></g><path d="M146.982 147.678a1 1 0 0 1-.223-.028c-20.27-5.028-32.669-25.61-27.64-45.879a37.62 37.62 0 0 1 17.214-23.322c8.665-5.221 18.845-6.755 28.665-4.32 20.269 5.028 32.669 25.61 27.641 45.88a37.94 37.94 0 0 1-26.843 27.439.92.92 0 0 1-1.133-.648.925.925 0 0 1 .649-1.134c12.606-3.432 22.389-13.433 25.534-26.103 4.784-19.28-7.012-38.858-26.292-43.641-9.339-2.318-19.023-.859-27.268 4.108s-14.057 12.845-16.375 22.185c-4.784 19.28 7.012 38.858 26.292 43.641a.92.92 0 0 1 .673 1.118.924.924 0 0 1-.896.703zm7.418-.3a1.48 1.48 0 0 0 1.478 1.478 1.48 1.48 0 0 0 1.478-1.478 1.48 1.48 0 0 0-1.478-1.478 1.48 1.48 0 0 0-1.478 1.478m-8.636-29.552-.532 2.696-.53 2.711a16 16 0 0 0-.247 2.813q.001 1.581.494 2.93c.493 1.349.803 1.681 1.425 2.348s1.389 1.184 2.297 1.556 1.931.557 3.072.557h1.427v-1.089q0-.284-.221-.44c-.221-.156-.292-.157-.43-.157h-.855q-1.116 0-2.036-.389a4.5 4.5 0 0 1-1.58-1.115 5.2 5.2 0 0 1-1.038-1.764c-.249-.693-.377-1.46-.377-2.309a17 17 0 0 1 .233-2.851 70 70 0 0 1 .518-2.775 81 81 0 0 0 .518-2.736 16 16 0 0 0 .233-2.737q0-.958-.324-1.75a5 5 0 0 0-.856-1.401 4.8 4.8 0 0 0-1.218-1.011 4.7 4.7 0 0 0-1.44-.557 5.3 5.3 0 0 0 1.44-.584 5 5 0 0 0 1.218-.999q.532-.595.856-1.4c.324-.805.324-1.125.324-1.764a16 16 0 0 0-.233-2.735 82 82 0 0 0-.518-2.725 69 69 0 0 1-.518-2.761 17.7 17.7 0 0 1-.233-2.879q0-1.272.377-2.309a5.2 5.2 0 0 1 1.038-1.762 4.4 4.4 0 0 1 1.58-1.116 5.2 5.2 0 0 1 2.036-.389h.855a.76.76 0 0 0 .43-.156.51.51 0 0 0 .221-.441v-1.09h-1.427q-1.71 0-3.072.557c-1.362.557-1.674.891-2.297 1.558a6.8 6.8 0 0 0-1.425 2.346 8.5 8.5 0 0 0-.494 2.93 16 16 0 0 0 .247 2.813q.246 1.364.53 2.712l.532 2.695a15.3 15.3 0 0 1 .247 2.775q0 .859-.285 1.57a3.7 3.7 0 0 1-.817 1.245 3.6 3.6 0 0 1-1.282.817 4.7 4.7 0 0 1-1.661.285v1.58a4.6 4.6 0 0 1 1.661.287q.754.286 1.282.817a3.7 3.7 0 0 1 .817 1.243q.285.715.285 1.57a15.3 15.3 0 0 1-.247 2.777zm20.292-4.347q.285-.712.818-1.242c.533-.53.777-.628 1.271-.817a4.6 4.6 0 0 1 1.644-.287v-1.58q-.906 0-1.644-.285c-.738-.285-.919-.463-1.271-.817a3.65 3.65 0 0 1-.818-1.245 4.2 4.2 0 0 1-.285-1.571 15.7 15.7 0 0 1 .245-2.775l.532-2.695.53-2.711a16 16 0 0 0 .249-2.813q0-1.58-.494-2.93a6.8 6.8 0 0 0-1.425-2.346c-.622-.667-1.387-1.183-2.295-1.558s-1.931-.557-3.073-.557h-1.427v1.089a.52.52 0 0 0 .209.441.72.72 0 0 0 .439.156h.856q1.116 0 2.036.389a4.4 4.4 0 0 1 1.58 1.117c.44.486.789 1.072 1.038 1.762s.377 1.46.377 2.309q0 1.478-.235 2.879a53 53 0 0 1-.518 2.761 74 74 0 0 0-.517 2.725 16 16 0 0 0-.235 2.735 4.8 4.8 0 0 0 .314 1.764 4.5 4.5 0 0 0 .841 1.399 5 5 0 0 0 1.218.999 5.4 5.4 0 0 0 1.44.584 4.7 4.7 0 0 0-1.44.557 4.9 4.9 0 0 0-1.218 1.011q-.53.61-.841 1.401c-.311.791-.314 1.112-.314 1.751a16.4 16.4 0 0 0 .235 2.738 82 82 0 0 0 .517 2.735 64 64 0 0 1 .518 2.775 17 17 0 0 1 .235 2.85q0 1.272-.377 2.309c-.377 1.037-.598 1.279-1.038 1.765a4.5 4.5 0 0 1-1.58 1.115 5.2 5.2 0 0 1-2.036.389h-.856a.72.72 0 0 0-.439.156.52.52 0 0 0-.209.441v1.089h1.427q1.71 0 3.073-.557c1.363-.557 1.672-.892 2.295-1.557s1.098-1.449 1.425-2.348.494-1.874.494-2.929q0-1.454-.249-2.813a91 91 0 0 0-.53-2.71l-.532-2.697a15.6 15.6 0 0 1-.245-2.775q0-.857.285-1.573zM78 187.962l3.025-4.033q1.396.969 3.257 1.629 1.861.659 3.645.659 1.318 0 2.191-.543t.872-1.357q0-.814-.989-1.144t-1.919-.465q-.931-.136-1.202-.174-2.327-.388-4.013-.931-1.687-.543-3.063-1.939t-1.377-3.839q0-4.033 2.928-5.39t5.875-1.357q2.52 0 4.653.737t4.227 2.327l-3.025 3.955q-1.512-.892-2.986-1.435-1.473-.543-3.063-.543-.969 0-1.881.427-.911.427-.911 1.163 0 .931 1.26 1.318 1.26.388 2.773.582 2.714.465 4.343.969t2.889 1.881 1.26 3.897q0 3.335-2.288 5.138t-6.476 1.803q-5.816 0-10.004-3.335zm48.606.698q-.737 1.008-2.54 1.803t-3.936.795q-3.296 0-5.72-1.473t-3.703-4.013-1.28-5.642 1.28-5.642 3.703-4.013q2.424-1.473 5.72-1.473 2.21 0 3.897.756t2.579 1.919v-2.21h5.739v21.327h-5.739zm-1.357-12.893q-1.59-1.687-4.265-1.687-2.714 0-4.285 1.687-1.57 1.687-1.57 4.362 0 2.598 1.609 4.304t4.246 1.706q2.714 0 4.285-1.609 1.57-1.609 1.57-4.401 0-2.676-1.59-4.362m40.948 20.396q-2.85 2.656-7.93 2.656-6.088 0-10.198-3.218l2.831-4.11q1.318 1.047 3.121 1.706t3.819.659q5.467 0 5.467-4.963v-.349q-2.327 1.9-5.972 1.9-3.374 0-5.933-1.415t-3.916-3.858-1.357-5.39q0-2.986 1.357-5.409 1.357-2.424 3.897-3.858t5.952-1.435q3.645 0 5.972 1.9v-1.512h5.739v19.427q0 4.614-2.85 7.271zm-5.545-11.361q1.338-.756 2.113-2.094.776-1.338.776-2.928 0-1.629-.776-2.947t-2.113-2.075q-1.338-.756-2.966-.756-2.637 0-4.246 1.648t-1.609 4.13q0 2.559 1.57 4.168t4.285 1.609q1.629 0 2.966-.756zm39.358 3.858q-.737 1.008-2.54 1.803t-3.936.795q-3.296 0-5.72-1.473t-3.703-4.013q-1.28-2.54-1.28-5.642t1.28-5.642 3.703-4.013q2.424-1.473 5.72-1.473 2.21 0 3.897.756t2.579 1.919v-2.21h5.739v21.327h-5.739zm-1.357-12.893q-1.59-1.687-4.265-1.687-2.714 0-4.285 1.687-1.57 1.687-1.57 4.362 0 2.598 1.609 4.304t4.246 1.706q2.714 0 4.285-1.609 1.57-1.609 1.57-4.401 0-2.676-1.59-4.362m32.049-.737q-1.667.407-3.063 1.919t-1.396 4.42v9.423h-5.778v-21.327h5.778v2.831q1.435-1.9 3.509-2.579 2.075-.679 3.781-.64v5.661q-1.163-.116-2.831.291zM56 235.489l3.021-4.027q1.394.968 3.253 1.626t3.64.658q1.317 0 2.188-.542t.871-1.355-.988-1.142-1.917-.465-1.201-.174q-2.324-.387-4.008-.929t-3.059-1.936-1.375-3.834q0-4.027 2.924-5.383t5.867-1.355q2.517 0 4.647.736t4.221 2.324l-3.021 3.95q-1.51-.891-2.982-1.433t-3.059-.542q-.968 0-1.878.426t-.91 1.162q0 .929 1.259 1.317t2.769.581q2.711.465 4.337.968t2.885 1.878 1.259 3.892q0 3.33-2.285 5.131t-6.467 1.801q-5.809 0-9.991-3.33zm50.305-16.497q1.994 2.362 1.994 6.738v12.586h-5.886V225.73q0-2.285-1.142-3.292t-3.001-1.007q-1.588 0-2.866 1.259t-1.201 4.357v11.269h-5.77V209h5.77v9.914q1.046-1.046 2.633-1.665 1.588-.62 3.059-.62 4.415 0 6.409 2.362zm32.84 17.194q-.736 1.007-2.537 1.801t-3.931.794q-3.292 0-5.712-1.472t-3.698-4.008q-1.278-2.537-1.278-5.635t1.278-5.635 3.698-4.008q2.42-1.472 5.712-1.472 2.207 0 3.892.755t2.575 1.917v-2.207h5.731v21.299h-5.731v-2.13zm-1.355-12.876q-1.588-1.685-4.26-1.685-2.711 0-4.279 1.685t-1.568 4.357q0 2.595 1.607 4.299t4.24 1.704q2.711 0 4.279-1.607t1.568-4.395q0-2.672-1.588-4.357zm32.007-.736q-1.665.407-3.059 1.917t-1.394 4.415v9.41h-5.77v-21.299h5.77v2.827q1.433-1.898 3.505-2.575t3.776-.639v5.654q-1.162-.116-2.827.29zm47.091-3.543q2.188 2.401 2.188 6.7v12.586h-5.848V225.73q0-2.285-1.142-3.292t-3.001-1.007q-1.549 0-2.788 1.162t-1.278 3.873v11.85h-5.848V225.73q0-2.285-1.142-3.292t-2.963-1.007q-1.665 0-2.885 1.239t-1.22 4.376l-.039 11.269h-5.77v-21.299h5.77v1.936q1.123-1.007 2.711-1.665t2.904-.658q4.492 0 6.854 2.904 1.201-1.355 2.982-2.13t3.873-.775q4.453 0 6.641 2.401zm33.382 17.156q-.736 1.007-2.537 1.801t-3.931.794q-3.292 0-5.712-1.472t-3.698-4.008q-1.278-2.537-1.278-5.635t1.278-5.635 3.698-4.008q2.42-1.472 5.712-1.472 2.207 0 3.892.755t2.575 1.917v-2.207H256v21.299h-5.731v-2.13zm-1.355-12.876q-1.588-1.685-4.26-1.685-2.711 0-4.279 1.685t-1.568 4.357q0 2.595 1.607 4.299t4.24 1.704q2.711 0 4.279-1.607t1.568-4.395q0-2.672-1.588-4.357z"/></svg>